<svg width="818" height="335" viewBox="0 0 818 335" fill="none" xmlns="http://www.w3.org/2000/svg">
<g id="undraw_Code_thinking_re_gka2 1" clip-path="url(#clip0)">
<path id="Vector" d="M179.546 186.889C179.553 185.86 179.339 184.842 178.916 183.896C178.493 182.951 177.871 182.099 177.089 181.394C176.306 180.688 175.38 180.145 174.368 179.797C173.356 179.449 172.28 179.305 171.207 179.373C170.133 179.44 169.087 179.719 168.131 180.191C167.176 180.663 166.332 181.318 165.653 182.116C164.975 182.913 164.475 183.836 164.186 184.827C163.897 185.817 163.825 186.854 163.974 187.872L141.496 216.016C140.537 217.85 140.165 219.914 140.427 221.949C140.689 223.984 141.573 225.9 142.969 227.457L144.732 229.424L152.823 227.877L161.992 220.141L160.913 211.375L172.24 194.357L172.225 194.344C174.208 194.224 176.068 193.386 177.428 192.001C178.788 190.616 179.545 188.788 179.546 186.889V186.889Z" fill="#FFB9B9"/>
<path id="Vector_2" d="M24.1039 324.48L20.4347 311.451L71.2501 291.72L76.6653 310.95L24.1039 324.48Z" fill="#FFB8B8"/>
<path id="Vector_3" d="M11.8302 331.203L0 289.192L0.555753 289.049C5.09151 287.882 9.92654 288.485 13.9974 290.726C18.0682 292.966 21.0414 296.661 22.263 300.998L22.2633 300.999L29.4887 326.658L11.8302 331.203Z" fill="#2F2E41"/>
<path id="Vector_4" d="M94.0999 322.398L82.6871 314.462L109.27 268.595L126.115 280.307L94.0999 322.398Z" fill="#FFB8B8"/>
<path id="Vector_5" d="M88.9655 335L52.1641 309.411L52.5026 308.966C55.2654 305.334 59.424 302.9 64.0637 302.2C68.7034 301.499 73.4442 302.589 77.2434 305.23L77.2443 305.231L99.7213 320.859L88.9655 335Z" fill="#2F2E41"/>
<path id="Vector_6" d="M191.118 258.303L162.397 231.627C159.89 229.299 156.589 227.914 153.1 227.728C149.611 227.541 146.168 228.566 143.406 230.613L89.1772 288.213L94.0316 295.432L145.811 261.912L180.869 305.746L214.31 289.76L191.118 258.303Z" fill="#2F2E41"/>
<path id="Vector_7" d="M178.712 263.975L157.677 262.428L142.443 258.897C141.583 257.614 140.333 256.612 138.86 256.027C137.388 255.441 135.764 255.3 134.205 255.621C132.647 255.943 131.228 256.712 130.139 257.825C129.05 258.939 128.343 260.344 128.112 261.852C127.882 263.361 128.139 264.901 128.849 266.266C129.558 267.631 130.688 268.756 132.085 269.491C133.482 270.225 135.081 270.534 136.667 270.376C138.252 270.218 139.75 269.6 140.959 268.606L140.957 268.617L150.126 272.226L189.499 285.119L194.354 281.509L178.712 263.975Z" fill="#FFB9B9"/>
<path id="Vector_8" d="M229.413 319.671L217.546 326.89H203.523L138.26 303.684L42.7918 320.186L40.0951 300.589L127.473 263.976L204.063 288.213L229.413 319.671Z" fill="#2F2E41"/>
<path id="Vector_9" d="M204.062 194.357C215.68 194.357 225.098 185.352 225.098 174.245C225.098 163.137 215.68 154.133 204.062 154.133C192.445 154.133 183.027 163.137 183.027 174.245C183.027 185.352 192.445 194.357 204.062 194.357Z" fill="#FFB9B9"/>
<path id="Vector_10" d="M258.49 254.543C258.49 266.681 256.489 278.743 252.562 290.286L250.987 294.917L243.436 327.921L235.346 329.984L229.413 322.764L217.547 314.513L208.917 301.105L201.517 289.317L199.208 285.634L191.118 246.957L160.374 230.455L150.126 228.908L152.283 223.236L161.453 211.375L170.622 210.343L173.319 208.28L175.476 209.312L187.369 213.692L225.928 198.116L231.57 198.998L250.987 214.469C255.951 227.297 258.492 240.866 258.49 254.543V254.543Z" fill="#CCCCCC"/>
<path id="Vector_11" opacity="0.1" d="M252.605 250.052L232.109 262.944L201.517 289.316L199.208 285.635L192.736 254.693H194.354L211.075 225.299L252.605 250.052Z" fill="black"/>
<path id="Vector_12" d="M211.075 222.204L194.354 251.598L184.645 261.913L176.016 263.976L199.208 288.213L232.109 259.85L252.605 246.957L211.075 222.204Z" fill="#CCCCCC"/>
<path id="Vector_13" d="M187.701 159.29L185.422 160.129C185.076 159.905 184.78 159.618 184.55 159.284C184.32 158.951 184.161 158.577 184.082 158.185C184.003 157.793 184.005 157.39 184.089 156.998C184.173 156.607 184.337 156.235 184.571 155.904C184.584 155.887 184.596 155.87 184.609 155.853L180.397 155.664C183.101 152.221 186.538 149.367 190.482 147.289C194.426 145.212 198.786 143.958 203.275 143.612C207.763 143.267 212.277 143.836 216.518 145.283C220.759 146.73 224.63 149.021 227.876 152.005C228.068 151.374 230.158 152.602 231.011 153.848C231.298 152.821 233.258 157.788 233.951 161.299C234.272 160.13 235.506 162.017 234.425 163.828C235.11 163.732 235.42 165.408 234.889 166.341C235.639 166.004 235.512 168.005 234.7 169.341C235.769 169.251 234.609 190.309 218.561 188.774C217.444 183.866 217.759 184.171 216.443 177.86C215.831 177.239 215.161 176.673 214.491 176.108L210.87 173.052C206.66 169.499 202.83 165.114 197.221 163.786C193.367 162.873 190.93 162.667 193.03 158.514C191.132 159.271 189.36 160.397 187.445 161.101C187.471 160.52 187.739 159.871 187.701 159.29Z" fill="#2F2E41"/>
<path id="Vector_14" d="M214.58 180.175C216.665 180.175 218.356 178.559 218.356 176.565C218.356 174.572 216.665 172.955 214.58 172.955C212.495 172.955 210.805 174.572 210.805 176.565C210.805 178.559 212.495 180.175 214.58 180.175Z" fill="#FFB9B9"/>
<path id="filled-solid-3" d="M38.5117 91.3081L37.3595 107.85L54.6604 108.951L55.8126 92.4097L38.5117 91.3081Z" fill="#A2A2A2"/>
<path id="solid-3" d="M27.3492 100.092L48.3574 101.429L46.9583 121.515L25.9501 120.178L27.3492 100.092ZM47.3832 102.244L28.2018 101.023L26.9243 119.362L46.1057 120.584L47.3832 102.244Z" fill="#A2A2A2"/>
<path id="filled-solid-2" d="M136.282 42.2574L119.33 45.7401L122.972 61.9483L139.924 58.4657L136.282 42.2574Z" fill="#A2A2A2"/>
<path id="solid-2" d="M124.383 34.4068L128.806 54.0882L108.221 58.3172L103.798 38.6357L124.383 34.4068ZM127.719 53.4164L123.681 35.4464L104.886 39.3076L108.924 57.2776L127.719 53.4164Z" fill="#A2A2A2"/>
<path id="filled-solid-1" d="M118.469 120.095L105.814 131.428L117.668 143.528L130.322 132.195L118.469 120.095Z" fill="#A2A2A2"/>
<path id="solid-1" d="M131.232 118.4L115.866 132.162L101.472 117.469L116.839 103.708L131.232 118.4ZM115.908 130.924L129.938 118.359L116.797 104.945L102.766 117.51L115.908 130.924Z" fill="#A2A2A2"/>
<path id="Vector_15" d="M772.901 0H259.882C258.028 -2.01486e-06 256.192 0.349202 254.478 1.02767C252.765 1.70615 251.209 2.70059 249.897 3.95425C248.586 5.2079 247.546 6.69621 246.836 8.33419C246.127 9.97217 245.762 11.7277 245.762 13.5007V286.8C245.762 288.572 246.127 290.328 246.836 291.966C247.546 293.604 248.586 295.092 249.897 296.346C251.209 297.6 252.765 298.594 254.478 299.273C256.192 299.951 258.028 300.3 259.882 300.3H772.901C776.646 300.3 780.238 298.878 782.886 296.346C785.534 293.814 787.022 290.38 787.022 286.8V13.5007C787.022 9.92007 785.534 6.48613 782.886 3.95426C780.238 1.42239 776.646 2.03461e-06 772.901 0V0Z" fill="#3F3D56"/>
<path id="Vector_16" d="M768.09 23.8595H264.693V295.364H768.09V23.8595Z" fill="white"/>
<path id="Vector_17" d="M515.961 16.4548C518.813 16.4548 521.124 14.2447 521.124 11.5183C521.124 8.79203 518.813 6.58191 515.961 6.58191C513.11 6.58191 510.798 8.79203 510.798 11.5183C510.798 14.2447 513.11 16.4548 515.961 16.4548Z" fill="white"/>
<path id="Vector_18" d="M624.127 295.364H264.693V23.8599L624.127 295.364Z" fill="#F2F2F2"/>
<path id="Vector_19" d="M343.459 275.047C370.183 275.047 391.848 254.334 391.848 228.783C391.848 203.232 370.183 182.518 343.459 182.518C316.735 182.518 295.071 203.232 295.071 228.783C295.071 254.334 316.735 275.047 343.459 275.047Z" fill="#23A6D5"/>
<path id="Vector_20" d="M354.231 263.555C342.327 263.555 330.69 260.18 320.791 253.856C310.893 247.533 303.178 238.545 298.623 228.029C294.067 217.514 292.875 205.943 295.198 194.779C297.52 183.616 303.253 173.362 311.67 165.314C320.088 157.265 330.813 151.784 342.489 149.564C354.164 147.343 366.267 148.483 377.265 152.839C388.263 157.194 397.664 164.571 404.277 174.034C410.891 183.498 414.421 194.625 414.421 206.006C414.421 213.564 412.864 221.047 409.84 228.029C406.815 235.011 402.381 241.355 396.792 246.699C391.203 252.043 384.568 256.282 377.265 259.174C369.962 262.066 362.135 263.555 354.231 263.555V263.555ZM354.231 149.21C342.482 149.21 330.997 152.541 321.228 158.782C311.46 165.023 303.846 173.893 299.35 184.272C294.854 194.65 293.677 206.069 295.969 217.087C298.261 228.104 303.919 238.224 312.227 246.167C320.534 254.11 331.119 259.52 342.642 261.711C354.165 263.903 366.109 262.778 376.964 258.479C387.818 254.18 397.096 246.901 403.623 237.561C410.151 228.221 413.634 217.24 413.635 206.007C413.635 198.548 412.098 191.162 409.113 184.272C406.127 177.381 401.752 171.12 396.236 165.846C390.72 160.572 384.171 156.388 376.964 153.534C369.757 150.679 362.032 149.21 354.231 149.21L354.231 149.21Z" fill="#3F3D56"/>
<path id="Vector_21" d="M651.555 164.914H604.533V174.308H651.555V164.914Z" fill="#3F3D56"/>
<path id="Vector_22" d="M696.044 114.019H560.044V118.045H696.044V114.019Z" fill="#3F3D56"/>
<path id="Vector_23" d="M696.044 129.837H560.044V133.863H696.044V129.837Z" fill="#3F3D56"/>
<path id="Vector_24" d="M696.044 145.655H560.044V149.682H696.044V145.655Z" fill="#3F3D56"/>
<path id="Vector_25" d="M732.475 40.1078H712.824V58.8967H732.475V40.1078Z" fill="#23A6D5"/>
<path id="Vector_26" d="M741.599 67.62H717.736V44.805H741.599V67.62ZM718.774 66.6281H740.561V45.797H718.774L718.774 66.6281Z" fill="#CCCCCC"/>
<path id="Vector_27" d="M801.156 290.427H752.028V287.043C752.028 286.955 752.009 286.868 751.974 286.786C751.939 286.705 751.887 286.631 751.822 286.569C751.757 286.506 751.679 286.457 751.594 286.423C751.509 286.389 751.418 286.372 751.326 286.372H734.482C734.39 286.372 734.298 286.389 734.213 286.423C734.128 286.457 734.051 286.506 733.985 286.569C733.92 286.631 733.869 286.705 733.833 286.786C733.798 286.868 733.78 286.955 733.78 287.043V290.427H723.252V287.043C723.252 286.955 723.234 286.868 723.199 286.786C723.164 286.705 723.112 286.631 723.047 286.569C722.982 286.506 722.904 286.457 722.819 286.423C722.734 286.389 722.643 286.372 722.551 286.372H705.707C705.615 286.372 705.523 286.389 705.438 286.423C705.353 286.457 705.276 286.506 705.21 286.569C705.145 286.631 705.093 286.705 705.058 286.786C705.023 286.868 705.005 286.955 705.005 287.043V287.043V290.427H694.477V287.043C694.477 286.955 694.459 286.868 694.424 286.786C694.389 286.705 694.337 286.631 694.272 286.569C694.207 286.506 694.129 286.457 694.044 286.423C693.959 286.389 693.868 286.372 693.776 286.372H676.931C676.839 286.372 676.748 286.389 676.663 286.423C676.578 286.457 676.5 286.506 676.435 286.569C676.37 286.631 676.318 286.705 676.283 286.786C676.248 286.868 676.23 286.955 676.23 287.043V287.043V290.427H665.702V287.043C665.702 286.955 665.684 286.868 665.649 286.786C665.613 286.705 665.562 286.631 665.497 286.569C665.431 286.506 665.354 286.457 665.269 286.423C665.184 286.389 665.092 286.372 665 286.372H648.156C648.064 286.372 647.973 286.389 647.888 286.423C647.803 286.457 647.725 286.506 647.66 286.569C647.595 286.631 647.543 286.705 647.508 286.786C647.473 286.868 647.454 286.955 647.454 287.043V290.427H636.927V287.043C636.927 286.955 636.909 286.868 636.874 286.786C636.838 286.705 636.787 286.631 636.721 286.569C636.656 286.506 636.579 286.457 636.494 286.423C636.409 286.389 636.317 286.372 636.225 286.372H619.381C619.289 286.372 619.198 286.389 619.113 286.423C619.027 286.457 618.95 286.506 618.885 286.569C618.82 286.631 618.768 286.705 618.733 286.786C618.697 286.868 618.679 286.955 618.679 287.043V287.043V290.427H608.152V287.043C608.152 286.955 608.134 286.868 608.098 286.786C608.063 286.705 608.011 286.631 607.946 286.569C607.881 286.506 607.804 286.457 607.719 286.423C607.633 286.389 607.542 286.372 607.45 286.372H590.606C590.514 286.372 590.422 286.389 590.337 286.423C590.252 286.457 590.175 286.506 590.11 286.569C590.044 286.631 589.993 286.705 589.958 286.786C589.922 286.868 589.904 286.955 589.904 287.043V287.043V290.427H579.377V287.043C579.377 286.955 579.358 286.868 579.323 286.786C579.288 286.705 579.236 286.631 579.171 286.569C579.106 286.506 579.029 286.457 578.943 286.423C578.858 286.389 578.767 286.372 578.675 286.372H446.73C446.638 286.372 446.547 286.389 446.461 286.423C446.376 286.457 446.299 286.506 446.234 286.569C446.169 286.631 446.117 286.705 446.082 286.786C446.046 286.868 446.028 286.955 446.028 287.043V287.043V290.427H435.501V287.043C435.501 286.955 435.483 286.868 435.447 286.786C435.412 286.705 435.36 286.631 435.295 286.569C435.23 286.506 435.153 286.457 435.067 286.423C434.982 286.389 434.891 286.372 434.799 286.372H417.955C417.863 286.372 417.771 286.389 417.686 286.423C417.601 286.457 417.524 286.506 417.459 286.569C417.393 286.631 417.342 286.705 417.306 286.786C417.271 286.868 417.253 286.955 417.253 287.043V287.043V290.427H406.726V287.043C406.726 286.955 406.707 286.868 406.672 286.786C406.637 286.705 406.585 286.631 406.52 286.569C406.455 286.506 406.377 286.457 406.292 286.423C406.207 286.389 406.116 286.372 406.024 286.372H389.18C389.088 286.372 388.996 286.389 388.911 286.423C388.826 286.457 388.749 286.506 388.683 286.569C388.618 286.631 388.567 286.705 388.531 286.786C388.496 286.868 388.478 286.955 388.478 287.043V287.043V290.427H377.95V287.043C377.95 286.955 377.932 286.868 377.897 286.786C377.862 286.705 377.81 286.631 377.745 286.569C377.68 286.506 377.602 286.457 377.517 286.423C377.432 286.389 377.341 286.372 377.249 286.372H360.405C360.312 286.372 360.221 286.389 360.136 286.423C360.051 286.457 359.973 286.506 359.908 286.569C359.843 286.631 359.791 286.705 359.756 286.786C359.721 286.868 359.703 286.955 359.703 287.043V287.043V290.427H349.175V287.043C349.175 286.955 349.157 286.868 349.122 286.786C349.087 286.705 349.035 286.631 348.97 286.569C348.904 286.506 348.827 286.457 348.742 286.423C348.657 286.389 348.566 286.372 348.473 286.372H331.629C331.537 286.372 331.446 286.389 331.361 286.423C331.276 286.457 331.198 286.506 331.133 286.569C331.068 286.631 331.016 286.705 330.981 286.786C330.946 286.868 330.928 286.955 330.928 287.043V287.043V290.427H320.4V287.043C320.4 286.955 320.382 286.868 320.347 286.786C320.311 286.705 320.26 286.631 320.194 286.569C320.129 286.506 320.052 286.457 319.967 286.423C319.882 286.389 319.79 286.372 319.698 286.372H302.854C302.668 286.372 302.489 286.443 302.358 286.569C302.226 286.694 302.152 286.865 302.152 287.043V290.427H291.625V287.043C291.625 286.955 291.607 286.868 291.571 286.786C291.536 286.705 291.484 286.631 291.419 286.569C291.354 286.506 291.277 286.457 291.192 286.423C291.106 286.389 291.015 286.372 290.923 286.372H274.079C273.893 286.372 273.714 286.443 273.583 286.569C273.451 286.694 273.377 286.865 273.377 287.043V290.427H241.093C236.625 290.427 232.341 292.124 229.182 295.144C226.023 298.165 224.249 302.261 224.249 306.532V313.814C224.249 318.085 226.023 322.182 229.182 325.202C232.341 328.222 236.625 329.919 241.093 329.919H801.156C805.623 329.919 809.908 328.222 813.066 325.202C816.225 322.182 818 318.085 818 313.814V306.532C818 304.417 817.564 302.323 816.718 300.369C815.871 298.415 814.631 296.64 813.066 295.144C811.502 293.649 809.646 292.463 807.602 291.653C805.558 290.844 803.368 290.427 801.156 290.427V290.427Z" fill="#3F3D56"/>
</g>
<defs>
<clipPath id="clip0">
<rect width="818" height="335" fill="white"/>
</clipPath>
</defs>
</svg>
